<svg xmlns="http://www.w3.org/2000/svg" viewBox="0 0 32 32" width="1.25em" height="1.25em" class="s-mr-1" fill="CurrentColor"><path fill-rule="evenodd" clip-rule="evenodd" d="M27 12H23V27H27V12ZM23 9C21.3431 9 20 10.3431 20 12V30H27C28.6569 30 30 28.6569 30 27V12C30 10.3431 28.6569 9 27 9H23Z"></path><path fill-rule="evenodd" clip-rule="evenodd" d="M20 17H16V27H20V17ZM16 14C14.3431 14 13 15.3431 13 17V30H23V14H16Z"></path><path fill-rule="evenodd" clip-rule="evenodd" d="M13 22H10V27H13V22ZM10 19C8.34315 19 7 20.3431 7 22V30H16V19H10Z"></path><path fill-rule="evenodd" clip-rule="evenodd" d="M7 25H4L4 27H7V25ZM4 22C2.34315 22 1 23.3431 1 25V27C1 28.6569 2.34315 30 4 30H10V22H4Z"></path><path d="M29.4656 2H23.5C23.2239 2 23 2.22386 23 2.5V6.5C23 6.77614 23.2239 7 23.5 7H29.4656C29.9496 7 30.1512 6.38111 29.7602 6.096L28.1255 4.904C27.8516 4.7043 27.8516 4.2957 28.1255 4.096L29.7602 2.904C30.1512 2.61889 29.9496 2 29.4656 2Z"></path><path d="M24 5C24.5523 5 25 5.44772 25 6V10C25 10.5523 24.5523 11 24 11C23.4477 11 23 10.5523 23 10V6C23 5.44772 23.4477 5 24 5Z"></path></svg>