<svg xmlns="http://www.w3.org/2000/svg" viewBox="0 0 32 32" width="1.25em" height="1.25em" class="s-mr-1" fill="CurrentColor"><path fill-rule="evenodd" clip-rule="evenodd" d="M12 20H5.00001L5.00001 24H12V20ZM5.00001 17C3.34315 17 2.00001 18.3431 2.00001 20V24C2.00001 25.6569 3.34315 27 5.00001 27H12C13.6569 27 15 25.6569 15 24V20C15 18.3431 13.6569 17 12 17H5.00001Z"></path><path fill-rule="evenodd" clip-rule="evenodd" d="M20 8H13V12H20V8ZM13 5C11.3432 5 10 6.34315 10 8V12C10 13.6569 11.3432 15 13 15H20C21.6569 15 23 13.6569 23 12V8C23 6.34315 21.6569 5 20 5H13Z"></path><path fill-rule="evenodd" clip-rule="evenodd" d="M27 20H20V24H27V20ZM20 17C18.3432 17 17 18.3431 17 20V24C17 25.6569 18.3432 27 20 27H27C28.6569 27 30 25.6569 30 24V20C30 18.3431 28.6569 17 27 17H20Z"></path></svg>