<svg xmlns="http://www.w3.org/2000/svg" viewBox="0 0 32 32" width="1.25em" height="1.25em" class="s-mr-1" fill="CurrentColor"><path fill-rule="evenodd" clip-rule="evenodd" d="M12.8121 9.18945L14.6218 12.3524C15.0577 13.1142 15.6863 13.7479 16.4447 14.1897L19.6377 16.0499L16.4447 17.9102C15.6863 18.352 15.0576 18.9856 14.6218 19.7474L12.8121 22.9104L11.0025 19.7475C10.5667 18.9857 9.93797 18.3521 9.17963 17.9103L5.98648 16.0499L9.17964 14.1896C9.93798 13.7478 10.5667 13.1141 11.0025 12.3523L12.8121 9.18945ZM14.5481 6.18257C13.78 4.84019 11.8442 4.84019 11.0762 6.18257L8.39859 10.8625C8.22425 11.1672 7.97277 11.4207 7.66944 11.5974L2.9932 14.3218C1.66893 15.0933 1.66893 17.0065 2.9932 17.778L7.66943 20.5024C7.97276 20.6791 8.22424 20.9326 8.39857 21.2373L11.0762 25.9173C11.8442 27.2597 13.78 27.2597 14.5481 25.9173L17.2257 21.2372C17.4001 20.9325 17.6515 20.6791 17.9549 20.5023L22.6309 17.778C23.9552 17.0065 23.9552 15.0933 22.631 14.3218L17.9549 11.5975C17.6516 11.4208 17.4001 11.1673 17.2257 10.8626L14.5481 6.18257Z"></path><path fill-rule="evenodd" clip-rule="evenodd" d="M23.602 4.23589C23.5142 4.38791 23.388 4.51415 23.236 4.60191L21.5 5.60419C20.8333 5.98909 20.8333 6.95134 21.5 7.33624L23.2359 8.33848C23.3879 8.42624 23.5142 8.55248 23.602 8.7045L24.6042 10.4404C24.9891 11.1071 25.9513 11.1071 26.3362 10.4404L27.3385 8.70445C27.4263 8.55243 27.5525 8.42619 27.7045 8.33843L29.4404 7.33623C30.107 6.95133 30.107 5.98908 29.4404 5.60418L27.7046 4.60202C27.5526 4.51425 27.4263 4.38801 27.3386 4.23599L26.3363 2.5C25.9514 1.83333 24.9891 1.83333 24.6042 2.5L23.602 4.23589Z"></path><path fill-rule="evenodd" clip-rule="evenodd" d="M23.602 23.2359C23.5142 23.3879 23.388 23.5141 23.236 23.6019L21.5 24.6042C20.8333 24.9891 20.8333 25.9513 21.5 26.3362L23.2359 27.3385C23.3879 27.4262 23.5142 27.5525 23.602 27.7045L24.6042 29.4404C24.9891 30.1071 25.9513 30.1071 26.3362 29.4404L27.3385 27.7045C27.4263 27.5524 27.5525 27.4262 27.7045 27.3384L29.4404 26.3362C30.107 25.9513 30.107 24.9891 29.4404 24.6042L27.7046 23.602C27.5526 23.5143 27.4263 23.388 27.3386 23.236L26.3363 21.5C25.9514 20.8333 24.9891 20.8333 24.6042 21.5L23.602 23.2359Z"></path></svg>