<svg width="32" height="32" viewBox="0 0 32 32" fill="none" xmlns="http://www.w3.org/2000/svg">
<path d="M0.139045 27.0033L0.0249023 30.7686L26.6857 24.4251L28.7423 11.4004H25.6146L20.8589 16.2418L16.703 16.4561L12.29 20.7833H6.50599L0.139045 27.0033Z" fill="white"/>
<path d="M26.3226 14.6684C26.018 14.7613 25.698 14.8284 25.378 14.88L21.6774 18.5807H17.0322L13.9355 22.7097H7.74192L0.516113 30.9678V31.4839H29.4193V12.8C28.5729 13.662 27.5148 14.3123 26.3226 14.6684Z" fill="#60CF4E"/>
<path d="M24.258 0.516113C28.2477 0.516113 31.4838 3.75224 31.4838 7.74192C31.4838 9.70837 30.6942 11.4942 29.4193 12.8C28.5729 13.6619 27.5148 14.3122 26.3225 14.6684C26.018 14.7613 25.698 14.8284 25.378 14.88C25.0116 14.9368 24.64 14.9677 24.258 14.9677C20.2684 14.9677 17.0322 11.7316 17.0322 7.74192C17.0322 3.75224 20.2684 0.516113 24.258 0.516113Z" fill="#FFC729"/>
<path d="M24.2585 12.9031C27.109 12.9031 29.4197 10.5924 29.4197 7.74186C29.4197 4.89135 27.109 2.58057 24.2585 2.58057C21.408 2.58057 19.0972 4.89135 19.0972 7.74186C19.0972 10.5924 21.408 12.9031 24.2585 12.9031Z" fill="#FCD770"/>
<path d="M24.774 11.3547V10.3225C25.6277 10.3225 26.3224 9.62774 26.3224 8.77407C26.3224 7.92039 25.6277 7.22568 24.774 7.22568H23.7417C23.4568 7.22568 23.2256 6.99445 23.2256 6.70955C23.2256 6.42465 23.4568 6.19342 23.7417 6.19342H25.2901V6.70955H26.3224V5.16116H24.774V4.12891H23.7417V5.16116C22.8881 5.16116 22.1934 5.85587 22.1934 6.70955C22.1934 7.56323 22.8881 8.25794 23.7417 8.25794H24.774C25.0589 8.25794 25.2901 8.48916 25.2901 8.77407C25.2901 9.05897 25.0589 9.2902 24.774 9.2902H23.2256V8.77407H22.1934V10.3225H23.7417V11.3547H24.774Z" fill="black"/>
<path d="M29.9354 7.74187C29.9354 4.61155 27.3883 2.06445 24.258 2.06445C21.1277 2.06445 18.5806 4.61155 18.5806 7.74187C18.5806 10.8722 21.1277 13.4193 24.258 13.4193C27.3883 13.4193 29.9354 10.8722 29.9354 7.74187ZM19.6128 7.74187C19.6128 5.18032 21.6964 3.09671 24.258 3.09671C26.8195 3.09671 28.9031 5.18032 28.9031 7.74187C28.9031 10.3034 26.8195 12.387 24.258 12.387C21.6964 12.387 19.6128 10.3034 19.6128 7.74187Z" fill="black"/>
<path d="M32 7.74194C32 3.47303 28.527 0 24.2581 0C19.9892 0 16.5161 3.47303 16.5161 7.74194C16.5161 11.0286 18.5781 13.8364 21.4741 14.9574L20.4315 16H16.2818L12.6689 20.129H6.48413L0.13729 27.0044L0 30.8096L0.895484 29.8213V27.7048L6.93574 21.1613H13.1381L16.751 17.0323H20.8594L22.593 15.2986C23.0658 15.4028 23.5546 15.4606 24.0552 15.4735L21.4637 18.0645H16.7742L13.6774 22.1935H7.50761L0 30.7737V32H29.9355V12.9879C31.2124 11.6067 32 9.76671 32 7.74194ZM17.5484 7.74194C17.5484 4.04232 20.5585 1.03226 24.2581 1.03226C27.9577 1.03226 30.9677 4.04232 30.9677 7.74194C30.9677 11.4415 27.9577 14.4516 24.2581 14.4516C20.5585 14.4516 17.5484 11.4415 17.5484 7.74194ZM25.8065 15.328V30.9677H23.7419V17.2459L25.6336 15.3543C25.6908 15.344 25.7497 15.3394 25.8065 15.328ZM21.8911 19.0968L22.7097 18.2782V30.9677H20.6452V19.0968H21.8911ZM7.22581 30.9677H5.16129V26.4428L7.22581 24.0836V30.9677ZM8.25806 23.2258H10.3226V30.9677H8.25806V23.2258ZM11.3548 23.2258H13.4194V30.9677H11.3548V23.2258ZM14.4516 22.8815L16.5161 20.129V30.9677H14.4516V22.8815ZM17.5484 19.0968H19.6129V30.9677H17.5484V19.0968ZM4.12903 27.6227V30.9677H1.20206L4.12903 27.6227ZM26.8387 30.9677V15.0323C27.5866 14.7665 28.2808 14.3902 28.9032 13.921V30.9677H26.8387Z" fill="black"/>
</svg>
