<svg xmlns="http://www.w3.org/2000/svg" viewBox="0 0 32 32" width="1.25em" height="1.25em" class="s-mr-1" fill="CurrentColor"><path fill-rule="evenodd" clip-rule="evenodd" d="M16 28C22.6274 28 28 22.6274 28 16C28 9.37258 22.6274 4 16 4C9.37258 4 4 9.37258 4 16C4 22.6274 9.37258 28 16 28ZM16 31C24.2843 31 31 24.2843 31 16C31 7.71573 24.2843 1 16 1C7.71573 1 1 7.71573 1 16C1 24.2843 7.71573 31 16 31Z"></path><path fill-rule="evenodd" clip-rule="evenodd" d="M14.1733 8.41383C14.878 6.83286 17.122 6.83285 17.8267 8.41383L19.2279 11.5572L22.6504 11.9184C24.3717 12.1001 25.0652 14.2343 23.7794 15.3931L21.2228 17.697L21.9369 21.0636C22.296 22.7569 20.4806 24.0759 18.9812 23.2111L16 21.4916L13.0188 23.2111C11.5194 24.0759 9.70395 22.7569 10.0631 21.0636L10.7772 17.697L8.22063 15.3931C6.93481 14.2343 7.62824 12.1001 9.34961 11.9184L12.7721 11.5572L14.1733 8.41383ZM16 11.6843L15.2774 13.3054C14.9867 13.9575 14.3705 14.4051 13.6606 14.4801L11.8955 14.6664L13.214 15.8546C13.7443 16.3325 13.9797 17.0569 13.8315 17.7552L13.4633 19.4915L15.0008 18.6047C15.6192 18.248 16.3808 18.248 16.9992 18.6047L18.5367 19.4915L18.1685 17.7552C18.0203 17.0569 18.2557 16.3325 18.786 15.8546L20.1045 14.6664L18.3394 14.4801C17.6295 14.4051 17.0133 13.9575 16.7226 13.3054L16 11.6843Z"></path></svg>