<svg xmlns="http://www.w3.org/2000/svg" viewBox="0 0 32 32" width="1.25em" height="1.25em" class="s-mr-1 s-mr-05 big flex-none" fill="CurrentColor"><path d="M2.5 3C3.32843 3 4 3.67157 4 4.5L4 27.5C4 28.3284 3.32843 29 2.5 29C1.67157 29 1 28.3284 1 27.5L1 4.5C1 3.67157 1.67157 3 2.5 3Z"></path><path d="M18.5 3C19.3284 3 20 3.67157 20 4.5V9.5C20 10.3284 19.3284 11 18.5 11C17.6716 11 17 10.3284 17 9.5V4.5C17 3.67157 17.6716 3 18.5 3Z"></path><path d="M18.5 21C19.3284 21 20 21.6716 20 22.5V27.5C20 28.3284 19.3284 29 18.5 29C17.6716 29 17 28.3284 17 27.5V22.5C17 21.6716 17.6716 21 18.5 21Z"></path><path d="M20 27.5C20 28.3284 19.3284 29 18.5 29H2.5C1.67157 29 1 28.3284 1 27.5C1 26.6716 1.67157 26 2.5 26L18.5 26C19.3284 26 20 26.6716 20 27.5Z"></path><path d="M20 4.5C20 5.32843 19.3284 6 18.5 6L2.5 6C1.67157 6 1 5.32843 1 4.5C1 3.67157 1.67157 3 2.5 3L18.5 3C19.3284 3 20 3.67157 20 4.5Z"></path><path d="M31 15.5C31 16.3284 30.3284 17 29.5 17L12.5 17C11.6716 17 11 16.3284 11 15.5C11 14.6716 11.6716 14 12.5 14L29.5 14C30.3284 14 31 14.6716 31 15.5Z"></path><path d="M23.4421 9.44212C24.0316 8.85263 24.9874 8.85263 25.5768 9.44212L30.5579 14.4232C31.1474 15.0126 31.1474 15.9684 30.5579 16.5579C29.9684 17.1474 29.0126 17.1474 28.4232 16.5579L23.4421 11.5768C22.8526 10.9874 22.8526 10.0316 23.4421 9.44212Z"></path><path d="M30.5579 14.4421C29.9684 13.8526 29.0126 13.8526 28.4232 14.4421L23.4421 19.4232C22.8526 20.0126 22.8526 20.9684 23.4421 21.5579C24.0316 22.1474 24.9874 22.1474 25.5768 21.5579L30.5579 16.5768C31.1474 15.9874 31.1474 15.0316 30.5579 14.4421Z"></path></svg>