<svg xmlns="http://www.w3.org/2000/svg" viewBox="0 0 32 32" width="1.25em" height="1.25em" class="s-mr-1 s-mr-05 big flex-none" fill="CurrentColor"><path fill-rule="evenodd" clip-rule="evenodd" d="M24.931 27C24.4711 23.2453 21.7975 21 19.4657 21H12.5776C10.1987 21 7.52889 23.2531 7.06914 27H24.931ZM28 28.9565V28.1502C28 22.5534 24.1444 18 19.4657 18H12.5776C7.8556 18 4 22.5534 4 28.1502V28.9565C4 29.5257 4.38989 30 4.86643 30H27.1336C27.6101 30 28 29.5257 28 28.9565Z"></path><path fill-rule="evenodd" clip-rule="evenodd" d="M16 13C18.2091 13 20 11.2091 20 9C20 6.79086 18.2091 5 16 5C13.7909 5 12 6.79086 12 9C12 11.2091 13.7909 13 16 13ZM16 16C19.866 16 23 12.866 23 9C23 5.13401 19.866 2 16 2C12.134 2 9 5.13401 9 9C9 12.866 12.134 16 16 16Z"></path></svg>